<svg xmlns="http://www.w3.org/2000/svg" version="1.1" width="3300" height="2000"><g id="Notes"><style>
    text {
      font-family: monospace;
      text-anchor: middle;
    }
    text.emphasis {
      font-weight:bold;
    }
    text.lanchor {
      text-anchor: start;
    }
  </style><rect height="2200" id="artboard" fill="white" width="3300" x="0" y="0"/><line id="" style="fill:none;stroke:black;stroke-width:0.5;" x1="263" x2="3036" y1="292" y2="292"/><text class="lanchor emphasis" transform="matrix(1 0 0 1 263 322)">Weight/Scale Variations</text><text transform="matrix(1 0 0 1 559.711 322)">Ultralight</text><text transform="matrix(1 0 0 1 856.422 322)">Thin</text><text transform="matrix(1 0 0 1 1153.13 322)">Light</text><text transform="matrix(1 0 0 1 1449.84 322)">Regular</text><text transform="matrix(1 0 0 1 1746.56 322)">Medium</text><text transform="matrix(1 0 0 1 2043.27 322)">Semibold</text><text transform="matrix(1 0 0 1 2339.98 322)">Bold</text><text transform="matrix(1 0 0 1 2636.69 322)">Heavy</text><text transform="matrix(1 0 0 1 2933.4 322)">Black</text><text id="template-version" style="text-anchor: end;" transform="matrix(1 0 0 1 3036 1933)">Template v.1.0</text><text class="lanchor" transform="matrix(1 0 0 1 263 726)">Small</text><text class="lanchor" transform="matrix(1 0 0 1 263 1156)">Medium</text><text class="lanchor" transform="matrix(1 0 0 1 263 1586)">Large</text></g><g id="Guides"><g id="H-reference" style="fill:#27AAE1;stroke:none;" transform="matrix(1 0 0 1 339 696)"><path d="M 54.9316 0 L 57.666 0 L 30.5664 -70.459 L 28.0762 -70.459 L 0.976562 0 L 3.66211 0 L 12.9395 -24.4629 L 45.7031 -24.4629 Z M 29.1992 -67.0898 L 29.4434 -67.0898 L 44.8242 -26.709 L 13.8184 -26.709 Z"/></g><line id="Baseline-S" style="fill:none;stroke:#27AAE1;opacity:1;stroke-width:0.577;" x1="263" x2="3036" y1="696" y2="696"/><line id="Capline-S" style="fill:none;stroke:#27AAE1;opacity:1;stroke-width:0.577;" x1="263" x2="3036" y1="625.541" y2="625.541"/><g id="H-reference" style="fill:#27AAE1;stroke:none;" transform="matrix(1 0 0 1 339 1126)"><path d="M 54.9316 0 L 57.666 0 L 30.5664 -70.459 L 28.0762 -70.459 L 0.976562 0 L 3.66211 0 L 12.9395 -24.4629 L 45.7031 -24.4629 Z M 29.1992 -67.0898 L 29.4434 -67.0898 L 44.8242 -26.709 L 13.8184 -26.709 Z"/></g><line id="Baseline-M" style="fill:none;stroke:#27AAE1;opacity:1;stroke-width:0.577;" x1="263" x2="3036" y1="1126" y2="1126"/><line id="Capline-M" style="fill:none;stroke:#27AAE1;opacity:1;stroke-width:0.577;" x1="263" x2="3036" y1="1055.54" y2="1055.54"/><g id="H-reference" style="fill:#27AAE1;stroke:none;" transform="matrix(1 0 0 1 339 1556)"><path d="M 54.9316 0 L 57.666 0 L 30.5664 -70.459 L 28.0762 -70.459 L 0.976562 0 L 3.66211 0 L 12.9395 -24.4629 L 45.7031 -24.4629 Z M 29.1992 -67.0898 L 29.4434 -67.0898 L 44.8242 -26.709 L 13.8184 -26.709 Z"/></g><line id="Baseline-L" style="fill:none;stroke:#27AAE1;opacity:1;stroke-width:0.577;" x1="263" x2="3036" y1="1556" y2="1556"/><line id="Capline-L" style="fill:none;stroke:#27AAE1;opacity:1;stroke-width:0.577;" x1="263" x2="3036" y1="1485.54" y2="1485.54"/><rect height="119.336" id="left-margin" style="fill:darkred;stroke:none;opacity:0.4;" width="12.4512" x="1394.06" y="1030.79"/><rect height="119.336" id="right-margin" style="fill:darkgreen;stroke:none;opacity:0.4;" width="12.4512" x="1502.5112" y="1030.79"/><rect x="1406.5112" y="1045" width="96" height="96" fill="none" stroke="blue" stroke-dasharray="5"/><rect x="1394.06" y="1030.79" width="120.9024" height="119.336" fill="none" stroke="blue"/></g><g id="Symbols"><g id="Bold-L" transform="matrix(1 0 0 1 2266 1556)"><path d="M86.591 33.946 V18.305 H102.394 V33.946 H86.591 Z M70.95 18.305 V-19.589 H86.591 V18.305 H70.95 Z M129.968 -4.915 V-35.23 H145.609 V-4.915 H129.968 Z M114.326 -35.23 V-50.871 H129.968 V-35.23 H114.326 Z M23.865 -19.589 V-35.23 H39.668 V-19.589 H23.865 Z M8.224 -35.23 V-50.871 H23.865 V-35.23 H8.224 Z M77.4 -88.765 V-104.406 H93.041 V-88.765 H77.4 Z M19.995 -69.254 H43.538 V-92.635 H19.995 V-69.254 Z M8.224 -57.321 V-104.406 H55.309 V-57.321 H8.224 Z M19.995 22.175 H43.538 V-1.367 H19.995 V22.175 Z M8.224 33.946 V-13.139 H55.309 V33.946 H8.224 Z M111.424 -69.254 H134.805 V-92.635 H111.424 V-69.254 Z M99.491 -57.321 V-104.406 H146.576 V-57.321 H99.491 Z M116.261 33.946 V10.855 H101.426 V-4.915 H129.968 V18.305 H145.609 V33.946 H116.261 Z M86.591 -19.589 V-35.23 H114.326 V-19.589 H86.591 Z M55.309 -19.589 V-35.23 H39.668 V-50.871 H86.591 V-35.23 H70.95 V-19.589 H55.309 Z M61.759 -57.321 V-88.765 H77.4 V-72.156 H93.041 V-57.321 H61.759 Z M27.413 -76.51 V-85.379 H36.12 V-76.51 H27.413 Z M27.413 14.758 V6.05 H36.12 V14.758 H27.413 Z M118.68 -76.51 V-85.379 H127.549 V-76.51 H118.68 Z"/></g><g id="Semibold-L" transform="matrix(1 0 0 1 1970.27 1556)"><path d="M85.399 29.109 V14.66 H99.94 V29.109 H85.399 Z M70.95 14.66 V-20.781 H85.399 V14.66 H70.95 Z M126.743 -6.878 V-35.23 H141.192 V-6.878 H126.743 Z M112.293 -35.23 V-49.679 H126.743 V-35.23 H112.293 Z M27.51 -20.781 V-35.23 H42.051 V-20.781 H27.51 Z M13.061 -35.23 V-49.679 H27.51 V-35.23 H13.061 Z M77.4 -85.12 V-99.569 H91.849 V-85.12 H77.4 Z M23.22 -66.379 H46.342 V-89.41 H23.22 V-66.379 Z M13.061 -56.129 V-99.569 H56.501 V-56.129 H13.061 Z M23.22 18.95 H46.342 V-4.172 H23.22 V18.95 Z M13.061 29.109 V-14.331 H56.501 V29.109 H13.061 Z M108.549 -66.379 H131.58 V-89.41 H108.549 V-66.379 Z M98.299 -56.129 V-99.569 H141.739 V-56.129 H98.299 Z M113.387 29.109 V7.644 H99.393 V-6.878 H126.743 V14.66 H141.192 V29.109 H113.387 Z M85.399 -20.781 V-35.23 H112.293 V-20.781 H85.399 Z M56.501 -20.781 V-35.23 H42.051 V-49.679 H85.399 V-35.23 H70.95 V-20.781 H56.501 Z M62.951 -56.129 V-85.12 H77.4 V-70.123 H91.849 V-56.129 H62.951 Z M30.217 -73.285 V-82.504 H39.345 V-73.285 H30.217 Z M30.217 11.953 V2.825 H39.345 V11.953 H30.217 Z M115.455 -73.285 V-82.504 H124.674 V-73.285 H115.455 Z"/></g><g id="Medium-L" transform="matrix(1 0 0 1 1674.31 1556)"><path d="M84.505 25.481 V11.925 H98.1 V25.481 H84.505 Z M70.95 11.925 V-21.675 H84.505 V11.925 H70.95 Z M124.324 -8.35 V-35.23 H137.879 V-8.35 H124.324 Z M110.768 -35.23 V-48.785 H124.324 V-35.23 H110.768 Z M30.245 -21.675 V-35.23 H43.839 V-21.675 H30.245 Z M16.689 -35.23 V-48.785 H30.245 V-35.23 H16.689 Z M77.4 -82.385 V-95.941 H90.955 V-82.385 H77.4 Z M25.639 -64.224 H48.445 V-86.991 H25.639 V-64.224 Z M16.689 -55.235 V-95.941 H57.395 V-55.235 H16.689 Z M25.639 16.531 H48.445 V-6.275 H25.639 V16.531 Z M16.689 25.481 V-15.225 H57.395 V25.481 H16.689 Z M106.394 -64.224 H129.161 V-86.991 H106.394 V-64.224 Z M97.405 -55.235 V-95.941 H138.111 V-55.235 H97.405 Z M111.231 25.481 V5.236 H97.868 V-8.35 H124.324 V11.925 H137.879 V25.481 H111.231 Z M84.505 -21.675 V-35.23 H110.768 V-21.675 H84.505 Z M57.395 -21.675 V-35.23 H43.839 V-48.785 H84.505 V-35.23 H70.95 V-21.675 H57.395 Z M63.845 -55.235 V-82.385 H77.4 V-68.598 H90.955 V-55.235 H63.845 Z M32.32 -70.866 V-80.349 H41.764 V-70.866 H32.32 Z M32.32 9.85 V0.406 H41.764 V9.85 H32.32 Z M113.036 -70.866 V-80.349 H122.519 V-70.866 H113.036 Z"/></g><g id="Regular-L" transform="matrix(1 0 0 1 1378.56 1556)"><path d="M83.85 22.82 V9.92 H96.75 V22.82 H83.85 Z M70.95 9.92 V-22.33 H83.85 V9.92 H70.95 Z M122.55 -9.43 V-35.23 H135.45 V-9.43 H122.55 Z M109.65 -35.23 V-48.13 H122.55 V-35.23 H109.65 Z M32.25 -22.33 V-35.23 H45.15 V-22.33 H32.25 Z M19.35 -35.23 V-48.13 H32.25 V-35.23 H19.35 Z M77.4 -80.38 V-93.28 H90.3 V-80.38 H77.4 Z M27.413 -62.642 H49.988 V-85.217 H27.413 V-62.642 Z M19.35 -54.58 V-93.28 H58.05 V-54.58 H19.35 Z M27.413 14.758 H49.988 V-7.817 H27.413 V14.758 Z M19.35 22.82 V-15.88 H58.05 V22.82 H19.35 Z M104.812 -62.642 H127.388 V-85.217 H104.812 V-62.642 Z M96.75 -54.58 V-93.28 H135.45 V-54.58 H96.75 Z M109.65 22.82 V3.47 H96.75 V-9.43 H122.55 V9.92 H135.45 V22.82 H109.65 Z M83.85 -22.33 V-35.23 H109.65 V-22.33 H83.85 Z M58.05 -22.33 V-35.23 H45.15 V-48.13 H83.85 V-35.23 H70.95 V-22.33 H58.05 Z M64.5 -54.58 V-80.38 H77.4 V-67.48 H90.3 V-54.58 H64.5 Z M33.863 -69.092 V-78.767 H43.538 V-69.092 H33.863 Z M33.863 8.308 V-1.367 H43.538 V8.308 H33.863 Z M111.263 -69.092 V-78.767 H120.938 V-69.092 H111.263 Z"/></g><g id="Light-L" transform="matrix(1 0 0 1 1082.77 1556)"><path d="M83.85 19.719 V7.439 H96.13 V19.719 H83.85 Z M71.57 7.439 V-22.95 H83.85 V7.439 H71.57 Z M120.069 -13.151 V-35.23 H132.349 V-13.151 H120.069 Z M107.789 -35.23 V-47.51 H120.069 V-35.23 H107.789 Z M34.731 -22.95 V-35.23 H47.011 V-22.95 H34.731 Z M22.451 -35.23 V-47.51 H34.731 V-35.23 H22.451 Z M77.4 -77.899 V-90.179 H89.68 V-77.899 H77.4 Z M28.963 -59.851 H52.779 V-83.667 H28.963 V-59.851 Z M22.451 -53.34 V-90.179 H59.29 V-53.34 H22.451 Z M28.963 13.207 H53.275 V-10.609 H28.963 V13.207 Z M22.451 19.719 V-17.12 H59.787 V19.719 H22.451 Z M102.021 -59.851 H125.837 V-83.667 H102.021 V-59.851 Z M95.51 -53.34 V-90.179 H132.349 V-53.34 H95.51 Z M107.789 19.719 V-0.872 H95.51 V-13.151 H120.069 V7.439 H132.349 V19.719 H107.789 Z M83.85 -22.95 V-35.23 H107.789 V-22.95 H83.85 Z M59.29 -22.95 V-35.23 H47.011 V-47.51 H83.85 V-35.23 H71.57 V-22.95 H59.29 Z M65.12 -53.34 V-77.899 H77.4 V-65.619 H89.68 V-53.34 H65.12 Z M36.405 -67.294 V-76.225 H45.336 V-67.294 H36.405 Z M36.84 5.33 V-3.6 H45.77 V5.33 H36.84 Z M109.464 -67.294 V-76.225 H118.395 V-67.294 H109.464 Z"/></g><g id="Thin-L" transform="matrix(1 0 0 1 787.282 1556)"><path d="M83.85 16.618 V4.958 H95.51 V16.618 H83.85 Z M72.19 4.958 V-23.57 H83.85 V4.958 H72.19 Z M117.588 -16.872 V-35.23 H129.248 V-16.872 H117.588 Z M105.929 -35.23 V-46.89 H117.588 V-35.23 H105.929 Z M37.212 -23.57 V-35.23 H48.871 V-23.57 H37.212 Z M25.552 -35.23 V-46.89 H37.212 V-35.23 H25.552 Z M77.4 -75.418 V-87.078 H89.06 V-75.418 H77.4 Z M30.513 -57.061 H55.569 V-82.117 H30.513 V-57.061 Z M25.552 -52.099 V-87.078 H60.531 V-52.099 H25.552 Z M30.513 11.657 H56.562 V-13.399 H30.513 V11.657 Z M25.552 16.618 V-18.361 H61.523 V16.618 H25.552 Z M99.231 -57.061 H124.287 V-82.117 H99.231 V-57.061 Z M94.269 -52.099 V-87.078 H129.248 V-52.099 H94.269 Z M105.929 16.618 V-5.213 H94.269 V-16.872 H117.588 V4.958 H129.248 V16.618 H105.929 Z M83.85 -23.57 V-35.23 H105.929 V-23.57 H83.85 Z M60.531 -23.57 V-35.23 H48.871 V-46.89 H83.85 V-35.23 H72.19 V-23.57 H60.531 Z M65.74 -52.099 V-75.418 H77.4 V-63.759 H89.06 V-52.099 H65.74 Z M38.948 -65.495 V-73.682 H47.135 V-65.495 H38.948 Z M39.816 2.354 V-5.833 H48.003 V2.354 H39.816 Z M107.665 -65.495 V-73.682 H115.852 V-65.495 H107.665 Z"/></g><g id="Ultralight-L" transform="matrix(1 0 0 1 491.205 1556)"><path d="M83.85 14.758 V3.47 H95.138 V14.758 H83.85 Z M72.562 3.47 V-23.942 H83.85 V3.47 H72.562 Z M116.1 -19.105 V-35.23 H127.388 V-19.105 H116.1 Z M104.812 -35.23 V-46.517 H116.1 V-35.23 H104.812 Z M38.7 -23.942 V-35.23 H49.988 V-23.942 H38.7 Z M27.413 -35.23 V-46.517 H38.7 V-35.23 H27.413 Z M77.4 -73.93 V-85.217 H88.688 V-73.93 H77.4 Z M31.444 -55.386 H57.244 V-81.186 H31.444 V-55.386 Z M27.413 -51.355 V-85.217 H61.275 V-51.355 H27.413 Z M31.444 10.726 H58.534 V-15.074 H31.444 V10.726 Z M27.413 14.758 V-19.105 H62.565 V14.758 H27.413 Z M97.556 -55.386 H123.356 V-81.186 H97.556 V-55.386 Z M93.525 -51.355 V-85.217 H127.388 V-51.355 H93.525 Z M104.812 14.758 V-7.817 H93.525 V-19.105 H116.1 V3.47 H127.388 V14.758 H104.812 Z M83.85 -23.942 V-35.23 H104.812 V-23.942 H83.85 Z M61.275 -23.942 V-35.23 H49.988 V-46.517 H83.85 V-35.23 H72.562 V-23.942 H61.275 Z M66.112 -51.355 V-73.93 H77.4 V-62.642 H88.688 V-51.355 H66.112 Z M40.474 -64.416 V-72.156 H48.214 V-64.416 H40.474 Z M41.602 0.568 V-7.172 H49.343 V0.568 H41.602 Z M106.586 -64.416 V-72.156 H114.326 V-64.416 H106.586 Z"/></g><g id="Bold-M" transform="matrix(1 0 0 1 2281.8 1126)"><path d="M67.875 21.27 V8.395 H80.75 V21.27 H67.875 Z M55 8.395 V-22.355 H67.875 V8.395 H55 Z M102.625 -10.48 V-35.23 H115.5 V-10.48 H102.625 Z M89.75 -35.23 V-48.105 H102.625 V-35.23 H89.75 Z M16.375 -22.355 V-35.23 H29.25 V-22.355 H16.375 Z M3.5 -35.23 V-48.105 H16.375 V-35.23 H3.5 Z M60 -78.855 V-91.73 H72.875 V-78.855 H60 Z M14.875 -64.48 H30.75 V-80.355 H14.875 V-64.48 Z M3.5 -53.105 V-91.73 H42.125 V-53.105 H3.5 Z M14.875 9.895 H30.75 V-5.98 H14.875 V9.895 Z M3.5 21.27 V-17.355 H42.125 V21.27 H3.5 Z M89.25 -64.48 H105.125 V-80.355 H89.25 V-64.48 Z M77.875 -53.105 V-91.73 H116.5 V-53.105 H77.875 Z M91.75 21.27 V2.395 H79.75 V-10.48 H102.625 V8.395 H115.5 V21.27 H91.75 Z M67.875 -22.355 V-35.23 H89.75 V-22.355 H67.875 Z M42.125 -22.355 V-35.23 H29.25 V-48.105 H67.875 V-35.23 H55 V-22.355 H42.125 Z M47.125 -53.105 V-78.855 H60 V-64.98 H72.875 V-53.105 H47.125 Z M19.5 -69.105 V-75.73 H26.125 V-69.105 H19.5 Z M19.5 5.27 V-1.355 H26.125 V5.27 H19.5 Z M93.875 -69.105 V-75.73 H100.5 V-69.105 H93.875 Z"/></g><g id="Semibold-M" transform="matrix(1 0 0 1 1985.97 1126)"><path d="M66.625 16.27 V4.645 H78.25 V16.27 H66.625 Z M55 4.645 V-23.605 H66.625 V4.645 H55 Z M99.31 -12.545 V-35.23 H110.935 V-12.545 H99.31 Z M87.685 -35.23 V-46.855 H99.31 V-35.23 H87.685 Z M20.125 -23.605 V-35.23 H31.75 V-23.605 H20.125 Z M8.5 -35.23 V-46.855 H20.125 V-35.23 H8.5 Z M60 -75.105 V-86.73 H71.625 V-75.105 H60 Z M18.19 -61.545 H33.685 V-77.04 H18.19 V-61.545 Z M8.5 -51.855 V-86.73 H43.375 V-51.855 H8.5 Z M18.19 6.58 H33.685 V-8.915 H18.19 V6.58 Z M8.5 16.27 V-18.605 H43.375 V16.27 H8.5 Z M86.315 -61.545 H101.81 V-77.04 H86.315 V-61.545 Z M76.625 -51.855 V-86.73 H111.5 V-51.855 H76.625 Z M88.815 16.27 V-0.92 H77.685 V-12.545 H99.31 V4.645 H110.935 V16.27 H88.815 Z M66.625 -23.605 V-35.23 H87.685 V-23.605 H66.625 Z M43.375 -23.605 V-35.23 H31.75 V-46.855 H66.625 V-35.23 H55 V-23.605 H43.375 Z M48.375 -51.855 V-75.105 H60 V-62.915 H71.625 V-51.855 H48.375 Z M22.435 -65.79 V-72.795 H29.44 V-65.79 H22.435 Z M22.435 2.335 V-4.67 H29.44 V2.335 H22.435 Z M90.56 -65.79 V-72.795 H97.565 V-65.79 H90.56 Z"/></g><g id="Medium-M" transform="matrix(1 0 0 1 1689.91 1126)"><path d="M65.688 12.52 V1.833 H76.375 V12.52 H65.688 Z M55 1.833 V-24.542 H65.688 V1.833 H55 Z M96.823 -14.094 V-35.23 H107.511 V-14.094 H96.823 Z M86.136 -35.23 V-45.917 H96.823 V-35.23 H86.136 Z M22.938 -24.542 V-35.23 H33.625 V-24.542 H22.938 Z M12.25 -35.23 V-45.917 H22.938 V-35.23 H12.25 Z M60 -72.292 V-82.98 H70.688 V-72.292 H60 Z M20.677 -59.344 H35.886 V-74.553 H20.677 V-59.344 Z M12.25 -50.917 V-82.98 H44.312 V-50.917 H12.25 Z M20.677 4.093 H35.886 V-11.116 H20.677 V4.093 Z M12.25 12.52 V-19.542 H44.312 V12.52 H12.25 Z M84.114 -59.344 H99.323 V-74.553 H84.114 V-59.344 Z M75.688 -50.917 V-82.98 H107.75 V-50.917 H75.688 Z M86.614 12.52 V-3.407 H76.136 V-14.094 H96.823 V1.833 H107.511 V12.52 H86.614 Z M65.688 -24.542 V-35.23 H86.136 V-24.542 H65.688 Z M44.312 -24.542 V-35.23 H33.625 V-45.917 H65.688 V-35.23 H55 V-24.542 H44.312 Z M49.312 -50.917 V-72.292 H60 V-61.366 H70.688 V-50.917 H49.312 Z M24.636 -63.303 V-70.594 H31.927 V-63.303 H24.636 Z M24.636 0.134 V-7.157 H31.927 V0.134 H24.636 Z M88.073 -63.303 V-70.594 H95.364 V-63.303 H88.073 Z"/></g><g id="Regular-M" transform="matrix(1 0 0 1 1394.06 1126)"><path d="M65 9.77 V-0.23 H75 V9.77 H65 Z M55 -0.23 V-25.23 H65 V-0.23 H55 Z M95 -15.23 V-35.23 H105 V-15.23 H95 Z M85 -35.23 V-45.23 H95 V-35.23 H85 Z M25 -25.23 V-35.23 H35 V-25.23 H25 Z M15 -35.23 V-45.23 H25 V-35.23 H15 Z M60 -70.23 V-80.23 H70 V-70.23 H60 Z M22.5 -57.73 H37.5 V-72.73 H22.5 V-57.73 Z M15 -50.23 V-80.23 H45 V-50.23 H15 Z M22.5 2.27 H37.5 V-12.73 H22.5 V2.27 Z M15 9.77 V-20.23 H45 V9.77 H15 Z M82.5 -57.73 H97.5 V-72.73 H82.5 V-57.73 Z M75 -50.23 V-80.23 H105 V-50.23 H75 Z M85 9.77 V-5.23 H75 V-15.23 H95 V-0.23 H105 V9.77 H85 Z M65 -25.23 V-35.23 H85 V-25.23 H65 Z M45 -25.23 V-35.23 H35 V-45.23 H65 V-35.23 H55 V-25.23 H45 Z M50 -50.23 V-70.23 H60 V-60.23 H70 V-50.23 H50 Z M26.25 -61.48 V-68.98 H33.75 V-61.48 H26.25 Z M26.25 -1.48 V-8.98 H33.75 V-1.48 H26.25 Z M86.25 -61.48 V-68.98 H93.75 V-61.48 H86.25 Z"/></g><g id="Light-M" transform="matrix(1 0 0 1 1098.18 1126)"><path d="M65 7.366 V-2.153 H74.519 V7.366 H65 Z M55.481 -2.153 V-25.711 H65 V-2.153 H55.481 Z M93.077 -18.115 V-35.23 H102.596 V-18.115 H93.077 Z M83.558 -35.23 V-44.749 H93.077 V-35.23 H83.558 Z M26.923 -25.711 V-35.23 H36.442 V-25.711 H26.923 Z M17.404 -35.23 V-44.749 H26.923 V-35.23 H17.404 Z M60 -68.307 V-77.826 H69.519 V-68.307 H60 Z M23.366 -55.23 H40 V-71.864 H23.366 V-55.23 Z M17.404 -49.268 V-77.826 H45.962 V-49.268 H17.404 Z M23.366 1.405 H40.385 V-15.23 H23.366 V1.405 Z M17.404 7.366 V-21.192 H46.346 V7.366 H17.404 Z M80 -55.23 H96.635 V-71.864 H80 V-55.23 Z M74.038 -49.268 V-77.826 H102.596 V-49.268 H74.038 Z M83.558 7.366 V-8.596 H74.038 V-18.115 H93.077 V-2.153 H102.596 V7.366 H83.558 Z M65 -25.711 V-35.23 H83.558 V-25.711 H65 Z M45.962 -25.711 V-35.23 H36.442 V-44.749 H65 V-35.23 H55.481 V-25.711 H45.962 Z M50.481 -49.268 V-68.307 H60 V-58.788 H69.519 V-49.268 H50.481 Z M28.221 -60.086 V-67.009 H35.144 V-60.086 H28.221 Z M28.558 -3.788 V-10.711 H35.481 V-3.788 H28.558 Z M84.856 -60.086 V-67.009 H91.779 V-60.086 H84.856 Z"/></g><g id="Thin-M" transform="matrix(1 0 0 1 802.565 1126)"><path d="M65 4.962 V-4.076 H74.038 V4.962 H65 Z M55.962 -4.076 V-26.191 H65 V-4.076 H55.962 Z M91.154 -20.999 V-35.23 H100.192 V-20.999 H91.154 Z M82.115 -35.23 V-44.268 H91.154 V-35.23 H82.115 Z M28.846 -26.191 V-35.23 H37.885 V-26.191 H28.846 Z M19.808 -35.23 V-44.268 H28.846 V-35.23 H19.808 Z M60 -66.384 V-75.422 H69.038 V-66.384 H60 Z M24.231 -52.73 H42.5 V-70.999 H24.231 V-52.73 Z M19.808 -48.307 V-75.422 H46.923 V-48.307 H19.808 Z M24.231 0.539 H43.269 V-17.73 H24.231 V0.539 Z M19.808 4.962 V-22.153 H47.692 V4.962 H19.808 Z M77.5 -52.73 H95.769 V-70.999 H77.5 V-52.73 Z M73.077 -48.307 V-75.422 H100.192 V-48.307 H73.077 Z M82.115 4.962 V-11.961 H73.077 V-20.999 H91.154 V-4.076 H100.192 V4.962 H82.115 Z M65 -26.191 V-35.23 H82.115 V-26.191 H65 Z M46.923 -26.191 V-35.23 H37.885 V-44.268 H65 V-35.23 H55.962 V-26.191 H46.923 Z M50.962 -48.307 V-66.384 H60 V-57.345 H69.038 V-48.307 H50.962 Z M30.192 -58.691 V-65.038 H36.538 V-58.691 H30.192 Z M30.865 -6.095 V-12.441 H37.212 V-6.095 H30.865 Z M83.462 -58.691 V-65.038 H89.808 V-58.691 H83.462 Z"/></g><g id="Ultralight-M" transform="matrix(1 0 0 1 506.415 1126)"><path d="M65 3.52 V-5.23 H73.75 V3.52 H65 Z M56.25 -5.23 V-26.48 H65 V-5.23 H56.25 Z M90 -22.73 V-35.23 H98.75 V-22.73 H90 Z M81.25 -35.23 V-43.98 H90 V-35.23 H81.25 Z M30 -26.48 V-35.23 H38.75 V-26.48 H30 Z M21.25 -35.23 V-43.98 H30 V-35.23 H21.25 Z M60 -65.23 V-73.98 H68.75 V-65.23 H60 Z M24.75 -51.23 H44 V-70.48 H24.75 V-51.23 Z M21.25 -47.73 V-73.98 H47.5 V-47.73 H21.25 Z M24.75 0.02 H45 V-19.23 H24.75 V0.02 Z M21.25 3.52 V-22.73 H48.5 V3.52 H21.25 Z M76 -51.23 H95.25 V-70.48 H76 V-51.23 Z M72.5 -47.73 V-73.98 H98.75 V-47.73 H72.5 Z M81.25 3.52 V-13.98 H72.5 V-22.73 H90 V-5.23 H98.75 V3.52 H81.25 Z M65 -26.48 V-35.23 H81.25 V-26.48 H65 Z M47.5 -26.48 V-35.23 H38.75 V-43.98 H65 V-35.23 H56.25 V-26.48 H47.5 Z M51.25 -47.73 V-65.23 H60 V-56.48 H68.75 V-47.73 H51.25 Z M31.375 -57.855 V-63.855 H37.375 V-57.855 H31.375 Z M32.25 -7.48 V-13.48 H38.25 V-7.48 H32.25 Z M82.625 -57.855 V-63.855 H88.625 V-57.855 H82.625 Z"/></g><g id="Bold-S" transform="matrix(1 0 0 1 2294.23 696)"><path d="M51.975 6.982 V-2.388 H61.345 V6.982 H51.975 Z M42.606 -2.388 V-25.861 H51.975 V-2.388 H42.606 Z M79.393 -17.28 V-35.23 H88.763 V-17.28 H79.393 Z M70.024 -35.23 V-44.599 H79.393 V-35.23 H70.024 Z M14.498 -25.861 V-35.23 H23.867 V-25.861 H14.498 Z M5.128 -35.23 V-44.599 H14.498 V-35.23 H5.128 Z M47.34 -68.072 V-77.441 H56.709 V-68.072 H47.34 Z M12.92 -57.125 H25.445 V-69.65 H12.92 V-57.125 Z M5.128 -49.333 V-77.441 H33.237 V-49.333 H5.128 Z M12.92 -0.81 H25.445 V-13.335 H12.92 V-0.81 Z M5.128 6.982 V-21.127 H33.237 V6.982 H5.128 Z M69.235 -57.125 H81.76 V-69.65 H69.235 V-57.125 Z M61.443 -49.333 V-77.441 H89.552 V-49.333 H61.443 Z M71.602 6.982 V-7.911 H62.923 V-17.28 H79.393 V-2.388 H88.763 V6.982 H71.602 Z M51.975 -25.861 V-35.23 H70.024 V-25.861 H51.975 Z M33.237 -25.861 V-35.23 H23.867 V-44.599 H51.975 V-35.23 H42.606 V-25.861 H33.237 Z M37.971 -49.333 V-68.072 H47.34 V-57.914 H56.709 V-49.333 H37.971 Z M17.161 -61.366 V-65.409 H21.204 V-61.366 H17.161 Z M17.161 -5.051 V-9.094 H21.204 V-5.051 H17.161 Z M73.476 -61.366 V-65.409 H77.519 V-61.366 H73.476 Z"/></g><g id="Semibold-S" transform="matrix(1 0 0 1 1998.1 696)"><path d="M50.989 3.037 V-5.346 H59.372 V3.037 H50.989 Z M42.606 -5.346 V-26.847 H50.989 V-5.346 H42.606 Z M76.778 -18.91 V-35.23 H85.161 V-18.91 H76.778 Z M68.394 -35.23 V-43.613 H76.778 V-35.23 H68.394 Z M17.456 -26.847 V-35.23 H25.84 V-26.847 H17.456 Z M9.073 -35.23 V-43.613 H17.456 V-35.23 H9.073 Z M47.34 -65.114 V-73.497 H55.723 V-65.114 H47.34 Z M15.535 -54.809 H27.761 V-67.035 H15.535 V-54.809 Z M9.073 -48.347 V-73.497 H34.223 V-48.347 H9.073 Z M15.535 -3.425 H27.761 V-15.651 H15.535 V-3.425 Z M9.073 3.037 V-22.113 H34.223 V3.037 H9.073 Z M66.919 -54.809 H79.145 V-67.035 H66.919 V-54.809 Z M60.457 -48.347 V-73.497 H85.607 V-48.347 H60.457 Z M69.286 3.037 V-10.526 H61.293 V-18.91 H76.778 V-5.346 H85.161 V3.037 H69.286 Z M50.989 -26.847 V-35.23 H68.394 V-26.847 H50.989 Z M34.223 -26.847 V-35.23 H25.84 V-43.613 H50.989 V-35.23 H42.606 V-26.847 H34.223 Z M38.957 -48.347 V-65.114 H47.34 V-56.284 H55.723 V-48.347 H38.957 Z M19.476 -58.75 V-63.094 H23.82 V-58.75 H19.476 Z M19.476 -7.366 V-11.71 H23.82 V-7.366 H19.476 Z M70.86 -58.75 V-63.094 H75.204 V-58.75 H70.86 Z"/></g><g id="Medium-S" transform="matrix(1 0 0 1 1701.85 696)"><path d="M50.249 0.078 V-7.566 H57.893 V0.078 H50.249 Z M42.606 -7.566 V-27.587 H50.249 V-7.566 H42.606 Z M74.816 -20.132 V-35.23 H82.459 V-20.132 H74.816 Z M67.172 -35.23 V-42.873 H74.816 V-35.23 H67.172 Z M19.676 -27.587 V-35.23 H27.319 V-27.587 H19.676 Z M12.032 -35.23 V-42.873 H19.676 V-35.23 H12.032 Z M47.34 -62.894 V-70.538 H54.983 V-62.894 H47.34 Z M17.497 -53.073 H29.497 V-65.073 H17.497 V-53.073 Z M12.032 -47.607 V-70.538 H34.963 V-47.607 H12.032 Z M17.497 -5.387 H29.497 V-17.387 H17.497 V-5.387 Z M12.032 0.078 V-22.853 H34.963 V0.078 H12.032 Z M65.183 -53.073 H77.183 V-65.073 H65.183 V-53.073 Z M59.717 -47.607 V-70.538 H82.648 V-47.607 H59.717 Z M67.55 0.078 V-12.488 H60.071 V-20.132 H74.816 V-7.566 H82.459 V0.078 H67.55 Z M50.249 -27.587 V-35.23 H67.172 V-27.587 H50.249 Z M34.963 -27.587 V-35.23 H27.319 V-42.873 H50.249 V-35.23 H42.606 V-27.587 H34.963 Z M39.697 -47.607 V-62.894 H47.34 V-55.062 H54.983 V-47.607 H39.697 Z M21.213 -56.788 V-61.357 H25.782 V-56.788 H21.213 Z M21.213 -9.103 V-13.672 H25.782 V-9.103 H21.213 Z M68.898 -56.788 V-61.357 H73.467 V-56.788 H68.898 Z"/></g><g id="Regular-S" transform="matrix(1 0 0 1 1405.73 696)"><path d="M49.707 -2.092 V-9.193 H56.808 V-2.092 H49.707 Z M42.606 -9.193 V-28.129 H49.707 V-9.193 H42.606 Z M73.377 -21.028 V-35.23 H80.478 V-21.028 H73.377 Z M66.276 -35.23 V-42.331 H73.377 V-35.23 H66.276 Z M21.303 -28.129 V-35.23 H28.404 V-28.129 H21.303 Z M14.202 -35.23 V-42.331 H21.303 V-35.23 H14.202 Z M47.34 -61.267 V-68.368 H54.441 V-61.267 H47.34 Z M18.936 -51.799 H30.771 V-63.634 H18.936 V-51.799 Z M14.202 -47.065 V-68.368 H35.505 V-47.065 H14.202 Z M18.936 -6.826 H30.771 V-18.661 H18.936 V-6.826 Z M14.202 -2.092 V-23.395 H35.505 V-2.092 H14.202 Z M63.909 -51.799 H75.744 V-63.634 H63.909 V-51.799 Z M59.175 -47.065 V-68.368 H80.478 V-47.065 H59.175 Z M66.276 -2.092 V-13.927 H59.175 V-21.028 H73.377 V-9.193 H80.478 V-2.092 H66.276 Z M49.707 -28.129 V-35.23 H66.276 V-28.129 H49.707 Z M35.505 -28.129 V-35.23 H28.404 V-42.331 H49.707 V-35.23 H42.606 V-28.129 H35.505 Z M40.239 -47.065 V-61.267 H47.34 V-54.166 H54.441 V-47.065 H40.239 Z M22.486 -55.349 V-60.083 H27.221 V-55.349 H22.486 Z M22.486 -10.376 V-15.11 H27.221 V-10.376 H22.486 Z M67.46 -55.349 V-60.083 H72.194 V-55.349 H67.46 Z"/></g><g id="Light-S" transform="matrix(1 0 0 1 1109.75 696)"><path d="M49.707 -3.989 V-10.71 H56.429 V-3.989 H49.707 Z M42.985 -10.71 V-28.508 H49.707 V-10.71 H42.985 Z M71.86 -23.304 V-35.23 H78.581 V-23.304 H71.86 Z M65.138 -35.23 V-41.952 H71.86 V-35.23 H65.138 Z M22.82 -28.508 V-35.23 H29.542 V-28.508 H22.82 Z M16.099 -35.23 V-41.952 H22.82 V-35.23 H16.099 Z M47.34 -59.75 V-66.471 H54.062 V-59.75 H47.34 Z M19.619 -49.826 H32.744 V-62.951 H19.619 V-49.826 Z M16.099 -46.306 V-66.471 H36.264 V-46.306 H16.099 Z M19.619 -7.509 H33.047 V-20.634 H19.619 V-7.509 Z M16.099 -3.989 V-24.154 H36.567 V-3.989 H16.099 Z M61.936 -49.826 H75.061 V-62.951 H61.936 V-49.826 Z M58.416 -46.306 V-66.471 H78.581 V-46.306 H58.416 Z M65.138 -3.989 V-16.582 H58.416 V-23.304 H71.86 V-10.71 H78.581 V-3.989 H65.138 Z M49.707 -28.508 V-35.23 H65.138 V-28.508 H49.707 Z M36.264 -28.508 V-35.23 H29.542 V-41.952 H49.707 V-35.23 H42.985 V-28.508 H36.264 Z M40.618 -46.306 V-59.75 H47.34 V-53.028 H54.062 V-46.306 H40.618 Z M24.042 -54.249 V-58.528 H28.321 V-54.249 H24.042 Z M24.307 -12.197 V-16.476 H28.586 V-12.197 H24.307 Z M66.359 -54.249 V-58.528 H70.638 V-54.249 H66.359 Z"/></g><g id="Thin-S" transform="matrix(1 0 0 1 814.015 696)"><path d="M49.707 -5.885 V-12.228 H56.049 V-5.885 H49.707 Z M43.365 -12.228 V-28.888 H49.707 V-12.228 H43.365 Z M70.342 -25.58 V-35.23 H76.685 V-25.58 H70.342 Z M64 -35.23 V-41.572 H70.342 V-35.23 H64 Z M24.338 -28.888 V-35.23 H30.68 V-28.888 H24.338 Z M17.995 -35.23 V-41.572 H24.338 V-35.23 H17.995 Z M47.34 -58.232 V-64.575 H53.682 V-58.232 H47.34 Z M20.302 -47.854 H34.716 V-62.268 H20.302 V-47.854 Z M17.995 -45.548 V-64.575 H37.022 V-45.548 H17.995 Z M20.302 -8.192 H35.323 V-22.606 H20.302 V-8.192 Z M17.995 -5.885 V-24.912 H37.629 V-5.885 H17.995 Z M59.964 -47.854 H74.378 V-62.268 H59.964 V-47.854 Z M57.658 -45.548 V-64.575 H76.685 V-45.548 H57.658 Z M64 -5.885 V-19.238 H57.658 V-25.58 H70.342 V-12.228 H76.685 V-5.885 H64 Z M49.707 -28.888 V-35.23 H64 V-28.888 H49.707 Z M37.022 -28.888 V-35.23 H30.68 V-41.572 H49.707 V-35.23 H43.365 V-28.888 H37.022 Z M40.998 -45.548 V-58.232 H47.34 V-51.89 H53.682 V-45.548 H40.998 Z M25.597 -53.149 V-56.973 H29.421 V-53.149 H25.597 Z M26.128 -14.018 V-17.842 H29.952 V-14.018 H26.128 Z M65.259 -53.149 V-56.973 H69.083 V-53.149 H65.259 Z"/></g><g id="Ultralight-S" transform="matrix(1 0 0 1 517.792 696)"><path d="M49.707 -7.023 V-13.138 H55.822 V-7.023 H49.707 Z M43.592 -13.138 V-29.115 H49.707 V-13.138 H43.592 Z M69.432 -26.945 V-35.23 H75.547 V-26.945 H69.432 Z M63.317 -35.23 V-41.345 H69.432 V-35.23 H63.317 Z M25.248 -29.115 V-35.23 H31.363 V-29.115 H25.248 Z M19.133 -35.23 V-41.345 H25.248 V-35.23 H19.133 Z M47.34 -57.322 V-63.437 H53.455 V-57.322 H47.34 Z M20.711 -46.67 H35.9 V-61.859 H20.711 V-46.67 Z M19.133 -45.092 V-63.437 H37.477 V-45.092 H19.133 Z M20.711 -8.601 H36.689 V-23.789 H20.711 V-8.601 Z M19.133 -7.023 V-25.367 H38.267 V-7.023 H19.133 Z M58.781 -46.67 H73.969 V-61.859 H58.781 V-46.67 Z M57.203 -45.092 V-63.437 H75.547 V-45.092 H57.203 Z M63.317 -7.023 V-20.831 H57.203 V-26.945 H69.432 V-13.138 H75.547 V-7.023 H63.317 Z M49.707 -29.115 V-35.23 H63.317 V-29.115 H49.707 Z M37.477 -29.115 V-35.23 H31.363 V-41.345 H49.707 V-35.23 H43.592 V-29.115 H37.477 Z M41.225 -45.092 V-57.322 H47.34 V-51.207 H53.455 V-45.092 H41.225 Z M26.53 -52.489 V-56.04 H30.081 V-52.489 H26.53 Z M27.221 -15.11 V-18.661 H30.771 V-15.11 H27.221 Z M64.599 -52.489 V-56.04 H68.15 V-52.489 H64.599 Z"/></g></g></svg>